<mxfile host="app.diagrams.net" modified="2023-11-24T03:12:07.129Z" agent="Mozilla/5.0 (Windows NT 10.0; Win64; x64) AppleWebKit/537.36 (KHTML, like Gecko) Chrome/119.0.0.0 Safari/537.36" version="22.1.3" etag="SdtjMZFkhflwLUFVE4bZ" type="github">
  <diagram name="페이지-1" id="iHMT0YP0gOgtmNx4hSlT">
    <mxGraphModel>
      <root>
        <mxCell id="0" />
        <mxCell id="1" parent="0" />
      </root>
    </mxGraphModel>
  </diagram>
</mxfile>
